<?xml version="1.0" encoding="UTF-8" standalone="no"?>
<svg
   id="svg4"
   version="1.1"
   viewBox="0 0 24 24"
   height="24"
   width="24"
   sodipodi:docname="guide_button.svg"
   inkscape:export-filename="guide_button.png"
   inkscape:export-xdpi="400"
   inkscape:export-ydpi="400"
   inkscape:version="1.3 (0e150ed, 2023-07-21)"
   xmlns:inkscape="http://www.inkscape.org/namespaces/inkscape"
   xmlns:sodipodi="http://sodipodi.sourceforge.net/DTD/sodipodi-0.dtd"
   xmlns:xlink="http://www.w3.org/1999/xlink"
   xmlns="http://www.w3.org/2000/svg"
   xmlns:svg="http://www.w3.org/2000/svg">
  <sodipodi:namedview
     id="namedview1"
     pagecolor="#ffffff"
     bordercolor="#000000"
     borderopacity="0.25"
     inkscape:showpageshadow="2"
     inkscape:pageopacity="0.0"
     inkscape:pagecheckerboard="0"
     inkscape:deskcolor="#d1d1d1"
     inkscape:zoom="9.8333333"
     inkscape:cx="11.949153"
     inkscape:cy="12"
     inkscape:window-width="2560"
     inkscape:window-height="1387"
     inkscape:window-x="1440"
     inkscape:window-y="25"
     inkscape:window-maximized="1"
     inkscape:current-layer="svg4" />
  <defs
     id="defs8" />
  <circle
     style="fill:#000000;fill-opacity:1;stroke-width:3.26929"
     id="path1"
     cx="12"
     cy="12"
     r="12" />
  <path
     style="fill:#ffffff;fill-opacity:1;stroke:#ffffff;stroke-width:0.5;stroke-linecap:round;stroke-dasharray:none"
     d="M 12.065009,17.633475 V 8.2643105"
     id="path2" />
  <path
     style="fill:#ffffff;fill-opacity:1;stroke:#ffffff;stroke-width:0.5;stroke-linecap:round;stroke-dasharray:none"
     d="M 4.5333401,16.132155 V 6.7629905"
     id="path2-0-6" />
  <path
     style="fill:#ffffff;fill-opacity:1;stroke:#ffffff;stroke-width:0.5;stroke-linecap:round;stroke-dasharray:none"
     d="M 3.2114369,17.541612 V 8.1724465"
     id="path2-0-6-7" />
  <path
     style="fill:none;fill-opacity:1;stroke:#ffffff;stroke-width:0.499944;stroke-linecap:round;stroke-linejoin:bevel;stroke-dasharray:none"
     d="m 4.4194174,15.180699 c 1.3766937,-0.05281 2.7596187,0.05871 4.1100581,0.331456 1.2216838,0.246738 2.4167015,0.625284 3.5576315,1.126951"
     id="path3"
     transform="matrix(0.97117903,0,0,1.0299061,0.32625534,0.5043129)" />
  <path
     style="fill:none;fill-opacity:1;stroke:#ffffff;stroke-width:0.800744;stroke-linecap:round;stroke-linejoin:bevel;stroke-dasharray:none"
     d="m 4.4194174,15.180699 c 1.3766937,-0.05281 2.7596187,0.05871 4.1100581,0.331456 1.2216838,0.246738 2.4167015,0.625284 3.5576315,1.126951"
     id="path3-6"
     transform="matrix(0.66799644,0,0,0.58368445,2.8408309,5.3623583)" />
  <path
     style="fill:none;fill-opacity:1;stroke:#ffffff;stroke-width:0.800744;stroke-linecap:round;stroke-linejoin:bevel;stroke-dasharray:none"
     d="m 4.4194174,15.180699 c 1.3766937,-0.05281 2.7596187,0.05871 4.1100581,0.331456 1.2216838,0.246738 2.4167015,0.625284 3.5576315,1.126951"
     id="path3-6-7"
     transform="matrix(0.66799644,0,0,0.58368445,2.8408309,3.4800419)" />
  <path
     style="fill:none;fill-opacity:1;stroke:#ffffff;stroke-width:0.800744;stroke-linecap:round;stroke-linejoin:bevel;stroke-dasharray:none"
     d="m 4.4194174,15.180699 c 1.3766937,-0.05281 2.7596187,0.05871 4.1100581,0.331456 1.2216838,0.246738 2.4167015,0.625284 3.5576315,1.126951"
     id="path3-6-7-4"
     transform="matrix(0.66799644,0,0,0.58368445,2.8408309,1.8114988)" />
  <path
     style="fill:none;fill-opacity:1;stroke:#ffffff;stroke-width:0.800744;stroke-linecap:round;stroke-linejoin:bevel;stroke-dasharray:none"
     d="m 4.4194174,15.180699 c 1.3766937,-0.05281 2.7596187,0.05871 4.1100581,0.331456 1.2216838,0.246738 2.4167015,0.625284 3.5576315,1.126951"
     id="path3-6-7-4-3"
     transform="matrix(0.66799644,0,0,0.58368445,2.8408309,-0.07238484)" />
  <path
     style="fill:none;fill-opacity:1;stroke:#ffffff;stroke-width:0.499944;stroke-linecap:round;stroke-linejoin:bevel;stroke-dasharray:none"
     d="m 4.4194174,15.180699 c 1.0323632,-0.271802 2.089776,-0.44838 3.1544386,-0.526762 1.9964847,-0.146984 4.0181,0.05378 5.94668,0.590566"
     id="path3-8"
     transform="matrix(0.97117903,0,0,1.0299061,-1.065744,1.9287711)" />
  <path
     style="fill:none;fill-opacity:1;stroke:#ffffff;stroke-width:0.499944;stroke-linecap:round;stroke-linejoin:bevel;stroke-dasharray:none"
     transform="matrix(0.97117903,0,0,1.0299061,-1.0770061,-7.5314312)"
     d="m 4.4194174,15.180699 c 0.3266589,-0.208322 0.68619,-0.364984 1.0611768,-0.462396 0.077967,-0.02025 0.1565947,-0.03796 0.2357157,-0.0531"
     id="path3-8-9" />
  <use
     x="0"
     y="0"
     xlink:href="#path3"
     id="use4"
     transform="translate(0,-9.3691649)" />
  <use
     x="0"
     y="0"
     xlink:href="#path2"
     id="use9"
     transform="matrix(-1,0,0,1,24.159475,-0.02209709)" />
  <use
     x="0"
     y="0"
     xlink:href="#path2-0-6"
     id="use10"
     transform="matrix(-1,0,0,1,24.159475,0)" />
  <use
     x="0"
     y="0"
     xlink:href="#path2-0-6-7"
     id="use11"
     transform="matrix(-1,0,0,1,24.159475,0)" />
  <use
     x="0"
     y="0"
     xlink:href="#path3"
     id="use12"
     transform="matrix(-1,0,0,1,24.159475,0)" />
  <use
     x="0"
     y="0"
     xlink:href="#path3-6"
     id="use13"
     transform="matrix(-1,0,0,1,24.159475,0)" />
  <use
     x="0"
     y="0"
     xlink:href="#path3-6-7"
     id="use14"
     transform="matrix(-1,0,0,1,24.159475,0)" />
  <use
     x="0"
     y="0"
     xlink:href="#path3-6-7-4"
     id="use15"
     transform="matrix(-1,0,0,1,24.159475,0)" />
  <use
     x="0"
     y="0"
     xlink:href="#path3-6-7-4-3"
     id="use16"
     transform="matrix(-1,0,0,1,24.159475,0)" />
  <use
     x="0"
     y="0"
     xlink:href="#path3-8"
     id="use17"
     transform="matrix(-1,0,0,1,24.159475,0)" />
  <use
     x="0"
     y="0"
     xlink:href="#path3-8-9"
     id="use18"
     transform="matrix(-1,0,0,1,24.159475,0)" />
  <use
     x="0"
     y="0"
     xlink:href="#use4"
     id="use19"
     transform="matrix(-1,0,0,1,24.159475,0)" />
</svg>
