<?xml version="1.0" encoding="UTF-8" standalone="no"?>
<!-- Created with Inkscape (http://www.inkscape.org/) -->

<svg
   width="30.858mm"
   height="30.858mm"
   viewBox="0 0 30.858 30.858"
   version="1.1"
   id="svg1933"
   inkscape:version="1.4.2 (ebf0e940, 2025-05-08)"
   sodipodi:docname="HotHeatDays.svg"
   xmlns:inkscape="http://www.inkscape.org/namespaces/inkscape"
   xmlns:sodipodi="http://sodipodi.sourceforge.net/DTD/sodipodi-0.dtd"
   xmlns="http://www.w3.org/2000/svg"
   xmlns:svg="http://www.w3.org/2000/svg"
   xmlns:rdf="http://www.w3.org/1999/02/22-rdf-syntax-ns#"
   xmlns:cc="http://creativecommons.org/ns#"
   xmlns:dc="http://purl.org/dc/elements/1.1/">
  <defs
     id="defs1927" />
  <sodipodi:namedview
     id="base"
     pagecolor="#ffffff"
     bordercolor="#666666"
     borderopacity="1.0"
     inkscape:pageopacity="0.0"
     inkscape:pageshadow="2"
     inkscape:zoom="5.0423865"
     inkscape:cx="35.201585"
     inkscape:cy="53.347755"
     inkscape:document-units="mm"
     inkscape:current-layer="g6282"
     showgrid="false"
     units="mm"
     showguides="true"
     inkscape:guide-bbox="true"
     inkscape:snap-global="true"
     inkscape:window-width="1920"
     inkscape:window-height="1027"
     inkscape:window-x="1920"
     inkscape:window-y="25"
     inkscape:window-maximized="1"
     inkscape:showpageshadow="0"
     inkscape:pagecheckerboard="0"
     inkscape:deskcolor="#505050">
    <sodipodi:guide
       position="0,16.503893"
       orientation="1,0"
       id="guide2524"
       inkscape:locked="false"
       inkscape:label=""
       inkscape:color="rgb(0,0,255)" />
    <sodipodi:guide
       position="14.29892,0"
       orientation="0,1"
       id="guide2526"
       inkscape:locked="false"
       inkscape:label=""
       inkscape:color="rgb(0,0,255)" />
  </sodipodi:namedview>
  <metadata
     id="metadata1930">
    <rdf:RDF>
      <cc:Work
         rdf:about="">
        <dc:format>image/svg+xml</dc:format>
        <dc:type
           rdf:resource="http://purl.org/dc/dcmitype/StillImage" />
      </cc:Work>
    </rdf:RDF>
  </metadata>
  <g
     inkscape:label="Layer 1"
     inkscape:groupmode="layer"
     id="layer1"
     transform="translate(0,-266.14199)">
    <g
       id="g6282"
       transform="translate(-2.0522003,-11.649424)">
      <circle
         style="fill:#115158;fill-opacity:1;stroke-width:0.465"
         id="circle1093-0-8"
         cx="17.4814"
         cy="293.22021"
         r="15.429199" />
      <g
         style="fill:#ffffff;stroke-width:2.40327"
         transform="matrix(0.31848973,0,0,0.31848973,-13.704976,249.95928)"
         id="g1895">
        <g
           id="g1890"
           transform="matrix(0.96937002,0,0,0.96937002,52.360197,114.69525)"
           style="fill:#ffffff;stroke-width:0.655957">
          <path
             id="path1870"
             d="m 32,61.5 a 11.5,11.5 0 0 1 -6.5,-21 V 9 a 6.5,6.5 0 0 1 13,0 v 31.52 a 11.5,11.5 0 0 1 -6.5,21 z m 0,-56 A 3.5,3.5 0 0 0 28.5,9 v 33.21 l -0.75,0.44 a 8.5,8.5 0 1 0 8.5,0 L 35.5,42.21 V 9 A 3.5,3.5 0 0 0 32,5.5 Z"
             inkscape:connector-curvature="0"
             style="fill:#ffffff;stroke-width:0.655957" />
          <path
             id="path1872"
             d="M 35.5,43.94 A 3,3 0 0 1 34,41.35 V 18 h -4 v 23.35 a 3,3 0 0 1 -1.5,2.59 7,7 0 1 0 7,0 z"
             inkscape:connector-curvature="0"
             style="fill:#ffffff;stroke-width:0.655957" />
        </g>
      </g>
      <ellipse
         style="fill:#ffffff;stroke-width:0.0452286"
         id="path1"
         cx="22.493298"
         cy="286.60953"
         rx="3.0193031"
         ry="2.9456613" />
      <g
         id="g4">
        <path
           style="fill:#ffffff;stroke-width:0.111204"
           d="m 21.626473,289.89466 c 0.525009,0.16258 1.116902,0.13906 1.75032,0 l -0.895512,1.64855 z"
           id="path4"
           sodipodi:nodetypes="cccc" />
        <path
           style="fill:#ffffff;stroke-width:0.111204"
           d="m 19.513054,288.36564 c 0.256276,0.4862 0.691439,0.8881 1.237663,1.23767 l -1.798923,0.53247 z"
           id="path4-8"
           sodipodi:nodetypes="cccc" />
        <path
           style="fill:#ffffff;stroke-width:0.111204"
           d="m 20.713176,283.76136 c -0.4862,0.25627 -0.8881,0.69144 -1.23767,1.23766 l -0.532469,-1.79892 z"
           id="path4-8-7"
           sodipodi:nodetypes="cccc" />
        <path
           style="fill:#ffffff;stroke-width:0.111204"
           d="m 19.177358,285.66084 c -0.16258,0.52501 -0.13906,1.11691 0,1.75032 l -1.64855,-0.89551 z"
           id="path4-0"
           sodipodi:nodetypes="cccc" />
      </g>
      <g
         id="g4-1"
         transform="rotate(180,22.503965,286.64789)">
        <path
           style="fill:#ffffff;stroke-width:0.111204"
           d="m 21.626473,289.89466 c 0.525009,0.16258 1.116902,0.13906 1.75032,0 l -0.895512,1.64855 z"
           id="path4-7"
           sodipodi:nodetypes="cccc" />
        <path
           style="fill:#ffffff;stroke-width:0.111204"
           d="m 19.513054,288.36564 c 0.256276,0.4862 0.691439,0.8881 1.237663,1.23767 l -1.798923,0.53247 z"
           id="path4-8-2"
           sodipodi:nodetypes="cccc" />
        <path
           style="fill:#ffffff;stroke-width:0.111204"
           d="m 20.713176,283.76136 c -0.4862,0.25627 -0.8881,0.69144 -1.23767,1.23766 l -0.532469,-1.79892 z"
           id="path4-8-7-3"
           sodipodi:nodetypes="cccc" />
        <path
           style="fill:#ffffff;stroke-width:0.111204"
           d="m 19.177358,285.66084 c -0.16258,0.52501 -0.13906,1.11691 0,1.75032 l -1.64855,-0.89551 z"
           id="path4-0-6"
           sodipodi:nodetypes="cccc" />
      </g>
    </g>
  </g>
</svg>
